<?xml version="1.0" encoding="UTF-8" standalone="no"?>
<svg
   xmlns:dc="http://purl.org/dc/elements/1.1/"
   xmlns:cc="http://creativecommons.org/ns#"
   xmlns:rdf="http://www.w3.org/1999/02/22-rdf-syntax-ns#"
   xmlns:svg="http://www.w3.org/2000/svg"
   xmlns="http://www.w3.org/2000/svg"
   xmlns:sodipodi="http://sodipodi.sourceforge.net/DTD/sodipodi-0.dtd"
   xmlns:inkscape="http://www.inkscape.org/namespaces/inkscape"
   width="120mm"
   height="120mm"
   viewBox="0 0 119.99999 120"
   version="1.1"
   id="svg8"
   inkscape:version="1.0.2 (e86c870879, 2021-01-15, custom)"
   sodipodi:docname="LogoV.svg"
   inkscape:export-filename="D:\Dropbox\Docs\Remote Check-in\Remote Check-In\Artwork\LogoV.png"
   inkscape:export-xdpi="17.104401"
   inkscape:export-ydpi="17.104401">
  <defs
     id="defs2">
    <rect
       x="222.91998"
       y="212.54507"
       width="166.6875"
       height="145.8988"
       id="rect896" />
    <rect
       x="234.63725"
       y="213.67902"
       width="168.57738"
       height="120.5744"
       id="rect890" />
    <rect
       x="67.524796"
       y="86.316154"
       width="53.294643"
       height="40.065475"
       id="rect877" />
  </defs>
  <sodipodi:namedview
     id="base"
     pagecolor="#ffffff"
     bordercolor="#666666"
     borderopacity="1.0"
     inkscape:pageopacity="0.0"
     inkscape:pageshadow="2"
     inkscape:zoom="0.7"
     inkscape:cx="189.16011"
     inkscape:cy="156.79647"
     inkscape:document-units="mm"
     inkscape:current-layer="layer1"
     inkscape:document-rotation="0"
     showgrid="false"
     inkscape:window-width="1267"
     inkscape:window-height="860"
     inkscape:window-x="298"
     inkscape:window-y="0"
     inkscape:window-maximized="0" />
  <metadata
     id="metadata5">
    <rdf:RDF>
      <cc:Work
         rdf:about="">
        <dc:format>image/svg+xml</dc:format>
        <dc:type
           rdf:resource="http://purl.org/dc/dcmitype/StillImage" />
        <dc:title />
      </cc:Work>
    </rdf:RDF>
  </metadata>
  <g
     inkscape:label="Layer 1"
     inkscape:groupmode="layer"
     id="layer1"
     transform="translate(-97.431889,-96.128417)">
    <g
       id="g886"
       transform="matrix(1.4,0,0,1.4,-41.792987,-36.204316)"
       style="stroke-width:0.714285">
      <path
         d="m 144.9314,126.49677 -0.51265,-0.49312 h -4.24519 l -10.21141,10.20409 -0.15867,0.1782 v 4.24519 l 9.41802,9.42535 0.61274,0.60541 0.35397,0.34176 h 4.24519 l 9.59867,-9.59134 0.77141,-0.79094 v -4.24764 z m -8.02412,12.00566 5.39498,-5.39498 5.39498,5.39498 -5.39498,5.39498 z m -0.86418,-0.86173 -1.01308,-1.01308 9.15194,-9.15438 9.39849,9.40582 v 2.02861 l -9.40093,-9.40338 z m 6.66439,-10.41646 -9.40338,9.40093 8.13642,8.13642 -1.01309,1.01308 -9.15194,-9.1495 9.40338,-9.40093 z m -11.68343,10.87296 9.40094,9.40338 8.13641,-8.13641 1.01309,1.01308 -9.1495,9.15194 -0.61029,-0.61029 -8.79065,-8.79309 z m 10.87296,11.68343 9.40338,-9.40338 -8.13641,-8.13397 1.01309,-1.01309 9.15193,9.15194 -9.40337,9.3985 z"
         id="path2"
         style="fill:#4630ab;fill-opacity:1;stroke-width:0.188988" />
      <path
         style="fill:#ffffff;stroke-width:0.288842"
         d="m 135.72635,144.7984 -4.69165,-4.69176 v -0.9886 -0.98859 l 4.70103,4.70091 4.70103,4.70092 4.06672,-4.06658 4.06671,-4.06659 0.48503,0.48502 0.48502,0.48503 -4.56112,4.561 -4.56112,4.56101 z"
         id="path843" />
      <path
         style="fill:#ffffff;stroke-width:0.288842"
         d="m 135.86632,141.17008 -4.55168,-4.55179 4.68226,-4.68238 4.68227,-4.68238 h 0.98871 0.98871 l -4.69165,4.69177 -4.69166,4.69176 4.06655,4.06642 4.06654,4.06642 -0.47494,0.47599 c -0.26121,0.26179 -0.48359,0.47599 -0.49418,0.47599 -0.0106,0 -2.06751,-2.04831 -4.57093,-4.5518 z"
         id="path845" />
      <path
         style="fill:#ffffff;stroke-width:0.288842"
         d="m 148.85948,134.16526 -4.69169,-4.69171 -4.06673,4.0666 -4.06673,4.06661 -0.48503,-0.48503 -0.48502,-0.48502 4.56112,-4.561 4.56112,-4.56101 4.69228,4.6924 4.69229,4.6924 -0.01,0.97874 -0.01,0.97874 z"
         id="path847" />
      <path
         style="fill:#ffffff;stroke-width:0.288842"
         d="m 146.63958,145.05957 4.69166,-4.69177 -4.06672,-4.06658 -4.06671,-4.06659 0.48505,-0.48505 0.48505,-0.48505 4.561,4.561 4.56101,4.56101 -4.68229,4.6824 -4.68228,4.6824 h -0.98871 -0.98871 z"
         id="path849" />
    </g>
    <g
       aria-label="remote"
       id="text839"
       style="font-size:25.4px;line-height:1.25;font-family:HalisGR-Bold;-inkscape-font-specification:HalisGR-Bold;stroke-width:0.264583">
      <path
         d="m 115.6109,131.02022 v -10.668 q 0,-0.4318 0.2794,-0.7112 0.3048,-0.3048 0.7366,-0.3048 0.4318,0 0.7112,0.3048 0.3048,0.2794 0.3048,0.7112 v 0.6858 q 1.778,-1.7018 4.318,-1.7018 0.4318,0 0.7112,0.3048 0.3048,0.2794 0.3048,0.7112 0,0.4318 -0.3048,0.7366 -0.2794,0.2794 -0.7112,0.2794 -1.778,0 -3.048,1.27 -1.27,1.27 -1.27,3.048 v 5.334 q 0,0.4318 -0.3048,0.7366 -0.2794,0.2794 -0.7112,0.2794 -0.4318,0 -0.7366,-0.2794 -0.2794,-0.3048 -0.2794,-0.7366 z"
         style="font-style:normal;font-variant:normal;font-weight:normal;font-stretch:normal;font-size:25.4px;font-family:Nokio;-inkscape-font-specification:Nokio;stroke-width:0.264583"
         id="path865" />
      <path
         d="m 135.67685,126.70222 h -9.525 q 0.3556,1.4478 1.4986,2.3876 1.1684,0.9144 2.6924,0.9144 1.778,0 3.048,-1.27 0.3048,-0.2794 0.7112,-0.2794 0.4318,0 0.7366,0.2794 0.2794,0.3048 0.2794,0.7366 0,0.4064 -0.2794,0.7112 -1.9304,1.8542 -4.4958,1.8542 -2.6416,0 -4.4958,-1.8542 -1.8542,-1.8542 -1.8542,-4.4958 0,-2.6416 1.8542,-4.4958 1.8542,-1.8542 4.4958,-1.8542 2.6416,0 4.4958,1.8542 1.8542,1.8542 1.8542,4.4958 0,0.4318 -0.3048,0.7366 -0.2794,0.2794 -0.7112,0.2794 z m -9.525,-2.032 h 8.382 q -0.3556,-1.4478 -1.524,-2.3622 -1.1684,-0.9398 -2.667,-0.9398 -1.524,0 -2.6924,0.9398 -1.143,0.9144 -1.4986,2.3622 z"
         style="font-style:normal;font-variant:normal;font-weight:normal;font-stretch:normal;font-size:25.4px;font-family:Nokio;-inkscape-font-specification:Nokio;stroke-width:0.264583"
         id="path867" />
      <path
         d="m 157.2668,131.02022 v -6.096 q 0,-1.4732 -1.0414,-2.5146 -1.0414,-1.0414 -2.5146,-1.0414 -1.4732,0 -2.5146,1.0414 -1.0414,1.0414 -1.0414,2.5146 v 6.096 q 0,0.4318 -0.3048,0.7366 -0.2794,0.2794 -0.7112,0.2794 -0.4318,0 -0.7366,-0.2794 -0.2794,-0.3048 -0.2794,-0.7366 v -6.096 q 0,-1.4732 -1.0414,-2.5146 -1.0414,-1.0414 -2.5146,-1.0414 -1.4732,0 -2.5146,1.0414 -1.0414,1.0414 -1.0414,2.5146 v 6.096 q 0,0.4318 -0.3048,0.7366 -0.2794,0.2794 -0.7112,0.2794 -0.4318,0 -0.7366,-0.2794 -0.2794,-0.3048 -0.2794,-0.7366 v -10.668 q 0,-0.4318 0.2794,-0.7112 0.3048,-0.3048 0.7366,-0.3048 0.4318,0 0.7112,0.3048 0.3048,0.2794 0.3048,0.7112 v 0.254 q 1.6002,-1.27 3.556,-1.27 1.397,0 2.5908,0.635 1.1938,0.635 1.9812,1.7526 0.7874,-1.1176 1.9812,-1.7526 1.1938,-0.635 2.5908,-0.635 2.286,0 3.937,1.651 1.651,1.651 1.651,3.937 v 6.096 q 0,0.4318 -0.3048,0.7366 -0.2794,0.2794 -0.7112,0.2794 -0.4318,0 -0.7366,-0.2794 -0.2794,-0.3048 -0.2794,-0.7366 z"
         style="font-style:normal;font-variant:normal;font-weight:normal;font-stretch:normal;font-size:25.4px;font-family:Nokio;-inkscape-font-specification:Nokio;stroke-width:0.264583"
         id="path869" />
      <path
         d="m 172.9386,130.18202 q -1.8542,1.8542 -4.4958,1.8542 -2.6416,0 -4.4958,-1.8542 -1.8542,-1.8542 -1.8542,-4.4958 0,-2.6416 1.8542,-4.4958 1.8542,-1.8542 4.4958,-1.8542 2.6416,0 4.4958,1.8542 1.8542,1.8542 1.8542,4.4958 0,2.6416 -1.8542,4.4958 z m -7.5438,-1.4478 q 1.27,1.27 3.048,1.27 1.778,0 3.048,-1.27 1.27,-1.27 1.27,-3.048 0,-1.778 -1.27,-3.048 -1.27,-1.27 -3.048,-1.27 -1.778,0 -3.048,1.27 -1.27,1.27 -1.27,3.048 0,1.778 1.27,3.048 z"
         style="font-style:normal;font-variant:normal;font-weight:normal;font-stretch:normal;font-size:25.4px;font-family:Nokio;-inkscape-font-specification:Nokio;stroke-width:0.264583"
         id="path871" />
      <path
         d="m 179.61877,121.36822 v 6.858 q 0,0.7366 0.508,1.27 0.5334,0.508 1.27,0.508 0.7366,0 1.27,-0.5334 0.2794,-0.2794 0.6858,-0.2794 0.4318,0 0.7366,0.2794 0.3048,0.3048 0.3048,0.7366 0,0.4064 -0.3048,0.7112 -1.1176,1.1176 -2.6924,1.1176 -1.5748,0 -2.6924,-1.1176 -1.1176,-1.1176 -1.1176,-2.6924 v -12.954 q 0,-0.4318 0.2794,-0.7112 0.3048,-0.3048 0.7366,-0.3048 0.4318,0 0.7112,0.3048 0.3048,0.2794 0.3048,0.7112 v 4.064 h 2.794 q 0.4318,0 0.7112,0.3048 0.3048,0.2794 0.3048,0.7112 0,0.4318 -0.3048,0.7366 -0.2794,0.2794 -0.7112,0.2794 z"
         style="font-style:normal;font-variant:normal;font-weight:normal;font-stretch:normal;font-size:25.4px;font-family:Nokio;-inkscape-font-specification:Nokio;stroke-width:0.264583"
         id="path873" />
      <path
         d="m 198.23688,126.70222 h -9.525 q 0.3556,1.4478 1.4986,2.3876 1.1684,0.9144 2.6924,0.9144 1.778,0 3.048,-1.27 0.3048,-0.2794 0.7112,-0.2794 0.4318,0 0.7366,0.2794 0.2794,0.3048 0.2794,0.7366 0,0.4064 -0.2794,0.7112 -1.9304,1.8542 -4.4958,1.8542 -2.6416,0 -4.4958,-1.8542 -1.8542,-1.8542 -1.8542,-4.4958 0,-2.6416 1.8542,-4.4958 1.8542,-1.8542 4.4958,-1.8542 2.6416,0 4.4958,1.8542 1.8542,1.8542 1.8542,4.4958 0,0.4318 -0.3048,0.7366 -0.2794,0.2794 -0.7112,0.2794 z m -9.525,-2.032 h 8.382 q -0.3556,-1.4478 -1.524,-2.3622 -1.1684,-0.9398 -2.667,-0.9398 -1.524,0 -2.6924,0.9398 -1.143,0.9144 -1.4986,2.3622 z"
         style="font-style:normal;font-variant:normal;font-weight:normal;font-stretch:normal;font-size:25.4px;font-family:Nokio;-inkscape-font-specification:Nokio;stroke-width:0.264583"
         id="path875" />
    </g>
    <text
       xml:space="preserve"
       style="font-size:25.4px;line-height:1.25;font-family:HalisGR-Bold;-inkscape-font-specification:HalisGR-Bold;stroke-width:0.264583"
       x="83.786812"
       y="182.51215"
       id="text843"><tspan
         sodipodi:role="line"
         id="tspan841"
         x="83.786812"
         y="182.51215"
         style="font-size:25.4px;stroke-width:0.264583" /></text>
    <text
       xml:space="preserve"
       style="font-size:10.5833px;line-height:1.25;font-family:HalisGR-Bold;-inkscape-font-specification:HalisGR-Bold;stroke-width:0.264583"
       x="87.94455"
       y="184.78001"
       id="text849"><tspan
         sodipodi:role="line"
         id="tspan847"
         x="87.94455"
         y="184.78001"
         style="stroke-width:0.264583" /></text>
    <g
       aria-label="check in"
       id="text839-5"
       style="font-size:25.4px;line-height:1.25;font-family:HalisGR-Bold;-inkscape-font-specification:HalisGR-Bold;stroke-width:0.264583">
      <path
         d="m 118.13821,196.14641 q -1.9304,1.8542 -4.4958,1.8542 -2.6416,0 -4.4958,-1.8542 -1.8542,-1.8542 -1.8542,-4.4958 0,-2.6416 1.8542,-4.4958 1.8542,-1.8542 4.4958,-1.8542 2.5654,0 4.4958,1.8542 0.2794,0.3048 0.2794,0.7366 0,0.4064 -0.2794,0.7112 -0.3048,0.2794 -0.7366,0.2794 -0.4064,0 -0.7112,-0.2794 -1.27,-1.27 -3.048,-1.27 -1.778,0 -3.048,1.27 -1.27,1.27 -1.27,3.048 0,1.778 1.27,3.048 1.27,1.27 3.048,1.27 1.778,0 3.048,-1.27 0.3048,-0.2794 0.7112,-0.2794 0.4318,0 0.7366,0.2794 0.2794,0.3048 0.2794,0.7366 0,0.4064 -0.2794,0.7112 z"
         style="font-style:normal;font-variant:normal;font-weight:normal;font-stretch:normal;font-size:25.4px;font-family:Nokio;-inkscape-font-specification:Nokio;stroke-width:0.264583"
         id="path850" />
      <path
         d="m 132.41297,196.98461 v -5.334 q 0,-1.778 -1.27,-3.048 -1.27,-1.27 -3.048,-1.27 -1.778,0 -3.048,1.27 -1.27,1.27 -1.27,3.048 v 5.334 q 0,0.4318 -0.3048,0.7366 -0.2794,0.2794 -0.7112,0.2794 -0.4318,0 -0.7366,-0.2794 -0.2794,-0.3048 -0.2794,-0.7366 v -17.018 q 0,-0.4318 0.2794,-0.7112 0.3048,-0.3048 0.7366,-0.3048 0.4318,0 0.7112,0.3048 0.3048,0.2794 0.3048,0.7112 v 7.0358 q 1.778,-1.7018 4.318,-1.7018 2.6416,0 4.4958,1.8542 1.8542,1.8542 1.8542,4.4958 v 5.334 q 0,0.4318 -0.3048,0.7366 -0.2794,0.2794 -0.7112,0.2794 -0.4318,0 -0.7366,-0.2794 -0.2794,-0.3048 -0.2794,-0.7366 z"
         style="font-style:normal;font-variant:normal;font-weight:normal;font-stretch:normal;font-size:25.4px;font-family:Nokio;-inkscape-font-specification:Nokio;stroke-width:0.264583"
         id="path852" />
      <path
         d="m 148.41492,192.66661 h -9.525 q 0.3556,1.4478 1.4986,2.3876 1.1684,0.9144 2.6924,0.9144 1.778,0 3.048,-1.27 0.3048,-0.2794 0.7112,-0.2794 0.4318,0 0.7366,0.2794 0.2794,0.3048 0.2794,0.7366 0,0.4064 -0.2794,0.7112 -1.9304,1.8542 -4.4958,1.8542 -2.6416,0 -4.4958,-1.8542 -1.8542,-1.8542 -1.8542,-4.4958 0,-2.6416 1.8542,-4.4958 1.8542,-1.8542 4.4958,-1.8542 2.6416,0 4.4958,1.8542 1.8542,1.8542 1.8542,4.4958 0,0.4318 -0.3048,0.7366 -0.2794,0.2794 -0.7112,0.2794 z m -9.525,-2.032 h 8.382 q -0.3556,-1.4478 -1.524,-2.3622 -1.1684,-0.9398 -2.667,-0.9398 -1.524,0 -2.6924,0.9398 -1.143,0.9144 -1.4986,2.3622 z"
         style="font-style:normal;font-variant:normal;font-weight:normal;font-stretch:normal;font-size:25.4px;font-family:Nokio;-inkscape-font-specification:Nokio;stroke-width:0.264583"
         id="path854" />
      <path
         d="m 162.30867,196.14641 q -1.9304,1.8542 -4.4958,1.8542 -2.6416,0 -4.4958,-1.8542 -1.8542,-1.8542 -1.8542,-4.4958 0,-2.6416 1.8542,-4.4958 1.8542,-1.8542 4.4958,-1.8542 2.5654,0 4.4958,1.8542 0.2794,0.3048 0.2794,0.7366 0,0.4064 -0.2794,0.7112 -0.3048,0.2794 -0.7366,0.2794 -0.4064,0 -0.7112,-0.2794 -1.27,-1.27 -3.048,-1.27 -1.778,0 -3.048,1.27 -1.27,1.27 -1.27,3.048 0,1.778 1.27,3.048 1.27,1.27 3.048,1.27 1.778,0 3.048,-1.27 0.3048,-0.2794 0.7112,-0.2794 0.4318,0 0.7366,0.2794 0.2794,0.3048 0.2794,0.7366 0,0.4064 -0.2794,0.7112 z"
         style="font-style:normal;font-variant:normal;font-weight:normal;font-stretch:normal;font-size:25.4px;font-family:Nokio;-inkscape-font-specification:Nokio;stroke-width:0.264583"
         id="path856" />
      <path
         d="m 176.38027,197.69581 -4.6228,-4.5974 -4.6228,4.5974 q -0.254,0.3048 -0.7112,0.3048 -0.4318,0 -0.7366,-0.2794 -0.2794,-0.3048 -0.2794,-0.7366 v -17.018 q 0,-0.4318 0.2794,-0.7112 0.3048,-0.3048 0.7366,-0.3048 0.4318,0 0.7112,0.3048 0.3048,0.2794 0.3048,0.7112 v 14.5542 l 8.9408,-8.9154 q 0.2794,-0.3048 0.7112,-0.3048 0.4318,0 0.7112,0.3048 0.3048,0.2794 0.3048,0.7112 0,0.4318 -0.3048,0.7112 l -4.5974,4.6228 4.5974,4.6228 q 0.3048,0.2794 0.3048,0.7112 0,0.4318 -0.3048,0.7112 -0.2794,0.3048 -0.7112,0.3048 -0.4318,0 -0.7112,-0.3048 z"
         style="font-style:normal;font-variant:normal;font-weight:normal;font-stretch:normal;font-size:25.4px;font-family:Nokio;-inkscape-font-specification:Nokio;stroke-width:0.264583"
         id="path858" />
      <path
         d="m 191.74719,180.55081 q 0.3302,0.3302 0.3302,0.8128 0,0.4826 -0.3302,0.8128 -0.3302,0.3302 -0.8128,0.3302 -0.4826,0 -0.8128,-0.3302 -0.3302,-0.3302 -0.3302,-0.8128 0,-0.4826 0.3302,-0.8128 0.3302,-0.3302 0.8128,-0.3302 0.4826,0 0.8128,0.3302 z m -1.8288,16.4338 v -10.668 q 0,-0.4318 0.2794,-0.7112 0.3048,-0.3048 0.7366,-0.3048 0.4318,0 0.7112,0.3048 0.3048,0.2794 0.3048,0.7112 v 10.668 q 0,0.4318 -0.3048,0.7366 -0.2794,0.2794 -0.7112,0.2794 -0.4318,0 -0.7366,-0.2794 -0.2794,-0.3048 -0.2794,-0.7366 z"
         style="font-style:normal;font-variant:normal;font-weight:normal;font-stretch:normal;font-size:25.4px;font-family:Nokio;-inkscape-font-specification:Nokio;stroke-width:0.264583"
         id="path860" />
      <path
         d="m 205.53937,196.98461 v -5.334 q 0,-1.778 -1.27,-3.048 -1.27,-1.27 -3.048,-1.27 -1.778,0 -3.048,1.27 -1.27,1.27 -1.27,3.048 v 5.334 q 0,0.4318 -0.3048,0.7366 -0.2794,0.2794 -0.7112,0.2794 -0.4318,0 -0.7366,-0.2794 -0.2794,-0.3048 -0.2794,-0.7366 v -10.668 q 0,-0.4318 0.2794,-0.7112 0.3048,-0.3048 0.7366,-0.3048 0.4318,0 0.7112,0.3048 0.3048,0.2794 0.3048,0.7112 v 0.6858 q 1.778,-1.7018 4.318,-1.7018 2.6416,0 4.4958,1.8542 1.8542,1.8542 1.8542,4.4958 v 5.334 q 0,0.4318 -0.3048,0.7366 -0.2794,0.2794 -0.7112,0.2794 -0.4318,0 -0.7366,-0.2794 -0.2794,-0.3048 -0.2794,-0.7366 z"
         style="font-style:normal;font-variant:normal;font-weight:normal;font-stretch:normal;font-size:25.4px;font-family:Nokio;-inkscape-font-specification:Nokio;stroke-width:0.264583"
         id="path862" />
    </g>
    <text
       xml:space="preserve"
       id="text875"
       style="font-size:10.5833px;line-height:1.25;font-family:HalisGR-Bold;-inkscape-font-specification:HalisGR-Bold;white-space:pre;shape-inside:url(#rect877);"
       transform="translate(3.0328464,0.94600248)" />
    <text
       xml:space="preserve"
       id="text888"
       style="font-size:10.5833px;line-height:1.25;font-family:HalisGR-Bold;-inkscape-font-specification:HalisGR-Bold;white-space:pre;shape-inside:url(#rect890);"
       transform="translate(3.0328464,0.94600248)" />
    <text
       xml:space="preserve"
       id="text894"
       style="font-size:10.5833px;line-height:1.25;font-family:HalisGR-Bold;-inkscape-font-specification:HalisGR-Bold;white-space:pre;shape-inside:url(#rect896);"
       transform="translate(3.0328464,0.94600248)" />
  </g>
</svg>
