<?xml version="1.0" encoding="UTF-8" standalone="no"?>
<svg
   xmlns:dc="http://purl.org/dc/elements/1.1/"
   xmlns:cc="http://creativecommons.org/ns#"
   xmlns:rdf="http://www.w3.org/1999/02/22-rdf-syntax-ns#"
   xmlns:svg="http://www.w3.org/2000/svg"
   xmlns="http://www.w3.org/2000/svg"
   xmlns:sodipodi="http://sodipodi.sourceforge.net/DTD/sodipodi-0.dtd"
   xmlns:inkscape="http://www.inkscape.org/namespaces/inkscape"
   width="324"
   height="72"
   viewBox="0 0 324 72"
   fill="none"
   version="1.1"
   id="svg6"
   sodipodi:docname="LogoH_P.svg"
   inkscape:version="1.0.2 (e86c870879, 2021-01-15, custom)">
  <metadata
     id="metadata12">
    <rdf:RDF>
      <cc:Work
         rdf:about="">
        <dc:format>image/svg+xml</dc:format>
        <dc:type
           rdf:resource="http://purl.org/dc/dcmitype/StillImage" />
        <dc:title />
      </cc:Work>
    </rdf:RDF>
  </metadata>
  <defs
     id="defs10" />
  <sodipodi:namedview
     pagecolor="#ffffff"
     bordercolor="#666666"
     borderopacity="1"
     objecttolerance="10"
     gridtolerance="10"
     guidetolerance="10"
     inkscape:pageopacity="0"
     inkscape:pageshadow="2"
     inkscape:window-width="1600"
     inkscape:window-height="838"
     id="namedview8"
     showgrid="false"
     inkscape:zoom="1.6759259"
     inkscape:cx="100.67537"
     inkscape:cy="36.08961"
     inkscape:window-x="-6"
     inkscape:window-y="-6"
     inkscape:window-maximized="1"
     inkscape:current-layer="svg6"
     inkscape:document-rotation="0" />
  <g
     id="g871"
     transform="translate(1.5852315,-2.64914)">
    <text
       xml:space="preserve"
       style="font-size:15.0809px;line-height:1.25;font-family:HalisGR-Bold;-inkscape-font-specification:HalisGR-Bold;fill:#4630ab;fill-opacity:1;stroke-width:0.999999"
       x="41.69257"
       y="50.264229"
       id="text835"><tspan
         sodipodi:role="line"
         id="tspan833"
         x="41.69257"
         y="50.264229"
         style="font-style:normal;font-variant:normal;font-weight:normal;font-stretch:normal;font-size:36.1943px;font-family:Nokio;-inkscape-font-specification:Nokio;fill:#4630ab;fill-opacity:1;stroke-width:0.999999">remote check in</tspan></text>
    <path
       d="m 19.97155,21.53967 -0.7305,-0.70268 H 13.19177 L -1.3592,35.37753 -1.5853,35.63146 v 6.04928 l 13.42042,13.43086 0.87313,0.86269 0.50439,0.487 h 6.04928 L 32.93976,42.7939 34.03899,41.66683 V 35.61406 Z M 8.53741,38.6474 l 7.6877,-7.68769 7.68769,7.68769 -7.68769,7.68769 z M 7.30599,37.41946 5.86237,35.97585 18.90363,22.93111 32.29622,36.33414 v 2.89072 L 18.90015,25.8253 Z M 16.80255,22.57629 3.403,35.97236 14.99716,47.56653 13.55354,49.01014 0.51229,35.97236 13.91184,22.57629 Z M 0.15399,38.06996 13.55007,51.46951 25.14423,39.87536 26.58784,41.31897 13.55007,54.36022 12.68042,53.49058 0.15399,40.96067 Z M 15.64766,54.71852 29.04721,41.31897 17.45305,29.72829 18.89667,28.28467 31.93792,41.32592 18.53837,54.71852 Z"
       id="path2-8"
       style="fill:#4630ab;fill-opacity:1;stroke-width:0.999999" />
    <path
       style="fill:#ffffff;stroke-width:1.52836"
       d="M 6.85463,47.61898 0.16916,40.93335 v -1.40872 -1.40871 l 6.69883,6.69866 6.69883,6.69868 5.79496,-5.79477 5.79495,-5.79477 0.69115,0.69114 0.69115,0.69115 -6.49947,6.4993 -6.49947,6.49931 z"
       id="path843" />
    <path
       style="fill:#ffffff;stroke-width:1.52836"
       d="m 7.05407,42.44873 -6.48601,-6.48617 6.67209,-6.67227 6.6721,-6.67225 h 1.40889 1.40888 l -6.68548,6.68563 -6.68547,6.68563 5.79471,5.79453 5.79471,5.79454 -0.67677,0.67827 c -0.37222,0.37304 -0.68911,0.67827 -0.7042,0.67827 -0.0151,0 -2.94614,-2.91878 -6.51345,-6.48618 z"
       id="path845" />
    <path
       style="fill:#ffffff;stroke-width:1.52836"
       d="m 25.56896,32.46705 -6.68552,-6.68556 -5.79498,5.7948 -5.79498,5.79481 -0.69115,-0.69116 -0.69114,-0.69114 6.49946,-6.49929 6.49947,-6.49931 6.68638,6.68653 6.68637,6.68654 -0.0143,1.39468 -0.0143,1.39468 z"
       id="path847" />
    <path
       style="fill:#ffffff;stroke-width:1.52836"
       d="m 22.40567,47.99114 6.68548,-6.68564 -5.79496,-5.79476 -5.79495,-5.79478 0.69118,-0.69118 0.69118,-0.69118 6.49931,6.49929 6.4993,6.49931 -6.67212,6.67229 -6.67213,6.67229 h -1.40888 -1.40889 z"
       id="path849" />
  </g>
</svg>
