<?xml version="1.0" encoding="UTF-8" standalone="no"?>
<svg
   xmlns:dc="http://purl.org/dc/elements/1.1/"
   xmlns:cc="http://creativecommons.org/ns#"
   xmlns:rdf="http://www.w3.org/1999/02/22-rdf-syntax-ns#"
   xmlns:svg="http://www.w3.org/2000/svg"
   xmlns="http://www.w3.org/2000/svg"
   xmlns:sodipodi="http://sodipodi.sourceforge.net/DTD/sodipodi-0.dtd"
   xmlns:inkscape="http://www.inkscape.org/namespaces/inkscape"
   width="227.37291mm"
   height="24.999996mm"
   viewBox="0 0 227.37291 24.999996"
   version="1.1"
   id="svg8"
   inkscape:version="1.0.2 (e86c870879, 2021-01-15, custom)"
   sodipodi:docname="TempFB.svg">
  <defs
     id="defs2" />
  <sodipodi:namedview
     id="base"
     pagecolor="#ffffff"
     bordercolor="#666666"
     borderopacity="1.0"
     inkscape:pageopacity="0.0"
     inkscape:pageshadow="2"
     inkscape:zoom="0.49497475"
     inkscape:cx="374.05381"
     inkscape:cy="197.0267"
     inkscape:document-units="mm"
     inkscape:current-layer="layer1"
     inkscape:document-rotation="0"
     showgrid="false"
     inkscape:window-width="1267"
     inkscape:window-height="860"
     inkscape:window-x="298"
     inkscape:window-y="41"
     inkscape:window-maximized="0" />
  <metadata
     id="metadata5">
    <rdf:RDF>
      <cc:Work
         rdf:about="">
        <dc:format>image/svg+xml</dc:format>
        <dc:type
           rdf:resource="http://purl.org/dc/dcmitype/StillImage" />
        <dc:title></dc:title>
      </cc:Work>
    </rdf:RDF>
  </metadata>
  <g
     inkscape:label="Layer 1"
     inkscape:groupmode="layer"
     id="layer1"
     transform="translate(-33.884913,-94.253653)">
    <text
       xml:space="preserve"
       style="font-size:10.5833px;line-height:1.25;font-family:HalisGR-Bold;-inkscape-font-specification:HalisGR-Bold;stroke-width:0.264583"
       x="64.255951"
       y="114.90475"
       id="text835"><tspan
         sodipodi:role="line"
         id="tspan833"
         x="64.255951"
         y="114.90475"
         style="font-style:normal;font-variant:normal;font-weight:normal;font-stretch:normal;font-size:25.4px;font-family:Nokio;-inkscape-font-specification:Nokio;stroke-width:0.264583">remote check in</tspan></text>
    <path
       d="m 49.012831,94.746769 -0.512645,-0.493116 h -4.245191 l -10.211406,10.204087 -0.158676,0.1782 v 4.24519 l 9.418026,9.42535 0.612733,0.60541 0.35397,0.34176 h 4.245191 l 9.598672,-9.59134 0.771409,-0.79094 v -4.24764 z m -8.024119,12.005661 5.394981,-5.39498 5.394981,5.39498 -5.394981,5.39498 z m -0.864174,-0.86173 -1.013084,-1.01308 9.151939,-9.154384 9.398496,9.405824 v 2.02861 l -9.400938,-9.403382 z m 6.664389,-10.416463 -9.403379,9.400933 8.136413,8.13642 -1.013085,1.01308 -9.151939,-9.1495 9.403379,-9.400933 z m -11.68343,10.872963 9.400938,9.40338 8.136413,-8.13641 1.013085,1.01308 -9.149498,9.15194 -0.610292,-0.61029 -8.790646,-8.79309 z m 10.872962,11.68343 9.403379,-9.40338 -8.136413,-8.13397 1.013085,-1.013086 9.151939,9.151936 -9.403379,9.3985 z"
       id="path2"
       style="fill:#4630ab;fill-opacity:1;stroke-width:0.264584" />
    <path
       style="fill:#ffffff;stroke-width:0.404379"
       d="m 39.807786,113.0484 -4.69165,-4.69176 v -0.9886 -0.98859 l 4.701029,4.70091 4.70103,4.70092 4.066716,-4.06658 4.066715,-4.06659 0.485024,0.48502 0.485024,0.48503 -4.561119,4.561 -4.561119,4.56101 z"
       id="path843" />
    <path
       style="fill:#ffffff;stroke-width:0.404379"
       d="m 39.947753,109.42008 -4.55168,-4.55179 4.682266,-4.68238 4.682267,-4.682379 h 0.98871 0.988709 l -4.691655,4.691769 -4.691655,4.69176 4.066545,4.06642 4.066544,4.06642 -0.474935,0.47599 c -0.261213,0.26179 -0.483597,0.47599 -0.494184,0.47599 -0.01059,0 -2.067507,-2.04831 -4.570932,-4.5518 z"
       id="path845" />
    <path
       style="fill:#ffffff;stroke-width:0.404379"
       d="m 52.940912,102.41526 -4.691684,-4.691714 -4.066734,4.066604 -4.066734,4.06661 -0.485024,-0.48503 -0.485023,-0.48502 4.561118,-4.561 4.561119,-4.561009 4.692286,4.692399 4.692287,4.6924 -0.01,0.97874 -0.01,0.97874 z"
       id="path847" />
    <path
       style="fill:#ffffff;stroke-width:0.404379"
       d="m 50.721016,113.30957 4.691656,-4.69177 -4.066716,-4.06658 -4.066716,-4.06659 0.48505,-0.485051 0.48505,-0.48505 4.561006,4.561001 4.561006,4.56101 -4.682286,4.6824 -4.682285,4.6824 h -0.98871 -0.98871 z"
       id="path849" />
  </g>
</svg>
