<?xml version="1.0" encoding="UTF-8" standalone="no"?>
<svg
   xmlns:dc="http://purl.org/dc/elements/1.1/"
   xmlns:cc="http://creativecommons.org/ns#"
   xmlns:rdf="http://www.w3.org/1999/02/22-rdf-syntax-ns#"
   xmlns:svg="http://www.w3.org/2000/svg"
   xmlns="http://www.w3.org/2000/svg"
   xmlns:sodipodi="http://sodipodi.sourceforge.net/DTD/sodipodi-0.dtd"
   xmlns:inkscape="http://www.inkscape.org/namespaces/inkscape"
   width="324"
   height="72"
   viewBox="0 0 324 72"
   fill="none"
   version="1.1"
   id="svg6"
   sodipodi:docname="LogoH_W.svg"
   inkscape:version="1.0.2 (e86c870879, 2021-01-15, custom)">
  <metadata
     id="metadata12">
    <rdf:RDF>
      <cc:Work
         rdf:about="">
        <dc:format>image/svg+xml</dc:format>
        <dc:type
           rdf:resource="http://purl.org/dc/dcmitype/StillImage" />
        <dc:title />
      </cc:Work>
    </rdf:RDF>
  </metadata>
  <defs
     id="defs10" />
  <sodipodi:namedview
     pagecolor="#ffffff"
     bordercolor="#666666"
     borderopacity="1"
     objecttolerance="10"
     gridtolerance="10"
     guidetolerance="10"
     inkscape:pageopacity="0"
     inkscape:pageshadow="2"
     inkscape:window-width="1600"
     inkscape:window-height="838"
     id="namedview8"
     showgrid="false"
     inkscape:zoom="1.6759259"
     inkscape:cx="100.67537"
     inkscape:cy="36.08961"
     inkscape:window-x="-6"
     inkscape:window-y="-6"
     inkscape:window-maximized="1"
     inkscape:current-layer="text835"
     inkscape:document-rotation="0" />
  <g
     aria-label="remote check in"
     id="text835"
     style="font-size:15.0809px;line-height:1.25;font-family:HalisGR-Bold;-inkscape-font-specification:HalisGR-Bold;fill:#2b0548;fill-opacity:1;stroke-width:0.999998">
    <path
       d="M 45.268564,46.167314 V 30.965707 q 0,-0.615303 0.398138,-1.013441 0.434331,-0.434331 1.049634,-0.434331 0.615304,0 1.013441,0.434331 0.434332,0.398138 0.434332,1.013441 v 0.977246 q 2.533601,-2.425018 6.153031,-2.425018 0.615303,0 1.01344,0.434331 0.434332,0.398138 0.434332,1.013441 0,0.615303 -0.434332,1.049635 -0.398137,0.398137 -1.01344,0.398137 -2.533601,0 -4.343316,1.809715 -1.809715,1.809715 -1.809715,4.343316 v 7.600804 q 0,0.615303 -0.434332,1.049634 -0.398137,0.398138 -1.013441,0.398138 -0.615303,0 -1.049634,-0.398138 -0.398138,-0.434331 -0.398138,-1.049634 z"
       style="font-style:normal;font-variant:normal;font-weight:normal;font-stretch:normal;font-size:36.1943px;font-family:Nokio;-inkscape-font-specification:Nokio;fill:#ffffff;fill-opacity:1;stroke-width:0.999998"
       id="path844" />
    <path
       d="M 73.861991,40.014282 H 60.289128 q 0.50672,2.063075 2.135464,3.402265 1.664938,1.302994 3.836596,1.302994 2.533601,0 4.343316,-1.809715 0.434332,-0.398137 1.01344,-0.398137 0.615303,0 1.049635,0.398137 0.398137,0.434332 0.398137,1.049635 0,0.579109 -0.398137,1.013441 -2.750767,2.642184 -6.406391,2.642184 -3.764208,0 -6.406392,-2.642184 -2.642184,-2.642184 -2.642184,-6.406392 0,-3.764207 2.642184,-6.406391 2.642184,-2.642184 6.406392,-2.642184 3.764207,0 6.406391,2.642184 2.642184,2.642184 2.642184,6.406391 0,0.615303 -0.434331,1.049635 -0.398138,0.398137 -1.013441,0.398137 z M 60.289128,37.118738 h 11.944119 q -0.50672,-2.063075 -2.171658,-3.36607 -1.664937,-1.339189 -3.800401,-1.339189 -2.171658,0 -3.836596,1.339189 -1.628744,1.302995 -2.135464,3.36607 z"
       style="font-style:normal;font-variant:normal;font-weight:normal;font-stretch:normal;font-size:36.1943px;font-family:Nokio;-inkscape-font-specification:Nokio;fill:#ffffff;fill-opacity:1;stroke-width:0.999998"
       id="path846" />
    <path
       d="m 104.62708,46.167314 v -8.686633 q 0,-2.099269 -1.48396,-3.583236 -1.48397,-1.483966 -3.583239,-1.483966 -2.099269,0 -3.583235,1.483966 -1.483967,1.483967 -1.483967,3.583236 v 8.686633 q 0,0.615303 -0.434331,1.049634 -0.398138,0.398138 -1.013441,0.398138 -0.615303,0 -1.049635,-0.398138 -0.398137,-0.434331 -0.398137,-1.049634 v -8.686633 q 0,-2.099269 -1.483966,-3.583236 -1.483967,-1.483966 -3.583236,-1.483966 -2.09927,0 -3.583236,1.483966 -1.483966,1.483967 -1.483966,3.583236 v 8.686633 q 0,0.615303 -0.434332,1.049634 -0.398137,0.398138 -1.01344,0.398138 -0.615304,0 -1.049635,-0.398138 -0.398137,-0.434331 -0.398137,-1.049634 V 30.965707 q 0,-0.615303 0.398137,-1.013441 0.434331,-0.434331 1.049635,-0.434331 0.615303,0 1.01344,0.434331 0.434332,0.398138 0.434332,1.013441 v 0.361943 q 2.280241,-1.809715 5.067202,-1.809715 1.990686,0 3.691819,0.904857 1.701132,0.904858 2.823155,2.497407 1.122024,-1.592549 2.823156,-2.497407 1.701132,-0.904857 3.691818,-0.904857 3.257489,0 5.610119,2.352629 2.35263,2.35263 2.35263,5.610117 v 8.686633 q 0,0.615303 -0.43433,1.049634 -0.39814,0.398138 -1.01344,0.398138 -0.61531,0 -1.04964,-0.398138 -0.39814,-0.434331 -0.39814,-1.049634 z"
       style="font-style:normal;font-variant:normal;font-weight:normal;font-stretch:normal;font-size:36.1943px;font-family:Nokio;-inkscape-font-specification:Nokio;fill:#ffffff;fill-opacity:1;stroke-width:0.999998"
       id="path848" />
    <path
       d="m 126.95896,44.972902 q -2.64218,2.642184 -6.40639,2.642184 -3.76421,0 -6.40639,-2.642184 -2.64219,-2.642184 -2.64219,-6.406392 0,-3.764207 2.64219,-6.406391 2.64218,-2.642184 6.40639,-2.642184 3.76421,0 6.40639,2.642184 2.64218,2.642184 2.64218,6.406391 0,3.764208 -2.64218,6.406392 z m -10.74971,-2.063076 q 1.80972,1.809715 4.34332,1.809715 2.5336,0 4.34331,-1.809715 1.80972,-1.809715 1.80972,-4.343316 0,-2.533601 -1.80972,-4.343316 -1.80971,-1.809715 -4.34331,-1.809715 -2.5336,0 -4.34332,1.809715 -1.80971,1.809715 -1.80971,4.343316 0,2.533601 1.80971,4.343316 z"
       style="font-style:normal;font-variant:normal;font-weight:normal;font-stretch:normal;font-size:36.1943px;font-family:Nokio;-inkscape-font-specification:Nokio;fill:#ffffff;fill-opacity:1;stroke-width:0.999998"
       id="path850" />
    <path
       d="m 136.47802,32.413479 v 9.772461 q 0,1.049635 0.72389,1.809715 0.76008,0.723886 1.80971,0.723886 1.04964,0 1.80972,-0.76008 0.39813,-0.398137 0.97724,-0.398137 0.61531,0 1.04964,0.398137 0.43433,0.434332 0.43433,1.049635 0,0.579109 -0.43433,1.01344 -1.59255,1.59255 -3.8366,1.59255 -2.24405,0 -3.83659,-1.59255 -1.59255,-1.592549 -1.59255,-3.836596 V 23.726847 q 0,-0.615304 0.39813,-1.013441 0.43433,-0.434332 1.04964,-0.434332 0.6153,0 1.01344,0.434332 0.43433,0.398137 0.43433,1.013441 v 5.791088 h 3.98137 q 0.61531,0 1.01344,0.434331 0.43434,0.398138 0.43434,1.013441 0,0.615303 -0.43434,1.049635 -0.39813,0.398137 -1.01344,0.398137 z"
       style="font-style:normal;font-variant:normal;font-weight:normal;font-stretch:normal;font-size:36.1943px;font-family:Nokio;-inkscape-font-specification:Nokio;fill:#ffffff;fill-opacity:1;stroke-width:0.999998"
       id="path852" />
    <path
       d="m 163.00833,40.014282 h -13.57286 q 0.50672,2.063075 2.13546,3.402265 1.66494,1.302994 3.8366,1.302994 2.5336,0 4.34331,-1.809715 0.43433,-0.398137 1.01344,-0.398137 0.6153,0 1.04964,0.398137 0.39813,0.434332 0.39813,1.049635 0,0.579109 -0.39813,1.013441 -2.75077,2.642184 -6.40639,2.642184 -3.76421,0 -6.4064,-2.642184 -2.64218,-2.642184 -2.64218,-6.406392 0,-3.764207 2.64218,-6.406391 2.64219,-2.642184 6.4064,-2.642184 3.7642,0 6.40639,2.642184 2.64218,2.642184 2.64218,6.406391 0,0.615303 -0.43433,1.049635 -0.39814,0.398137 -1.01344,0.398137 z m -13.57286,-2.895544 h 11.94411 q -0.50672,-2.063075 -2.17165,-3.36607 -1.66494,-1.339189 -3.8004,-1.339189 -2.17166,0 -3.8366,1.339189 -1.62874,1.302995 -2.13546,3.36607 z"
       style="font-style:normal;font-variant:normal;font-weight:normal;font-stretch:normal;font-size:36.1943px;font-family:Nokio;-inkscape-font-specification:Nokio;fill:#ffffff;fill-opacity:1;stroke-width:0.999998"
       id="path854" />
    <path
       d="m 196.56034,44.972902 q -2.75077,2.642184 -6.40639,2.642184 -3.76421,0 -6.40639,-2.642184 -2.64219,-2.642184 -2.64219,-6.406392 0,-3.764207 2.64219,-6.406391 2.64218,-2.642184 6.40639,-2.642184 3.65562,0 6.40639,2.642184 0.39814,0.434331 0.39814,1.049635 0,0.579108 -0.39814,1.01344 -0.43433,0.398137 -1.04964,0.398137 -0.57911,0 -1.01344,-0.398137 -1.80971,-1.809715 -4.34331,-1.809715 -2.5336,0 -4.34332,1.809715 -1.80971,1.809715 -1.80971,4.343316 0,2.533601 1.80971,4.343316 1.80972,1.809715 4.34332,1.809715 2.5336,0 4.34331,-1.809715 0.43433,-0.398137 1.01344,-0.398137 0.61531,0 1.04964,0.398137 0.39814,0.434332 0.39814,1.049635 0,0.579109 -0.39814,1.013441 z"
       style="font-style:normal;font-variant:normal;font-weight:normal;font-stretch:normal;font-size:36.1943px;font-family:Nokio;-inkscape-font-specification:Nokio;fill:#ffffff;fill-opacity:1;stroke-width:0.999998"
       id="path856" />
    <path
       d="M 216.90148,46.167314 V 38.56651 q 0,-2.533601 -1.80972,-4.343316 -1.80971,-1.809715 -4.34332,-1.809715 -2.5336,0 -4.34331,1.809715 -1.80972,1.809715 -1.80972,4.343316 v 7.600804 q 0,0.615303 -0.43433,1.049634 -0.39814,0.398138 -1.01344,0.398138 -0.6153,0 -1.04963,-0.398138 -0.39814,-0.434331 -0.39814,-1.049634 V 21.917131 q 0,-0.615303 0.39814,-1.01344 0.43433,-0.434332 1.04963,-0.434332 0.6153,0 1.01344,0.434332 0.43433,0.398137 0.43433,1.01344 v 10.025822 q 2.5336,-2.425018 6.15303,-2.425018 3.76421,0 6.4064,2.642184 2.64218,2.642184 2.64218,6.406391 v 7.600804 q 0,0.615303 -0.43433,1.049634 -0.39814,0.398138 -1.01344,0.398138 -0.61531,0 -1.04964,-0.398138 -0.39813,-0.434331 -0.39813,-1.049634 z"
       style="font-style:normal;font-variant:normal;font-weight:normal;font-stretch:normal;font-size:36.1943px;font-family:Nokio;-inkscape-font-specification:Nokio;fill:#ffffff;fill-opacity:1;stroke-width:0.999998"
       id="path858" />
    <path
       d="m 239.70383,40.014282 h -13.57286 q 0.50672,2.063075 2.13546,3.402265 1.66494,1.302994 3.8366,1.302994 2.5336,0 4.34331,-1.809715 0.43434,-0.398137 1.01345,-0.398137 0.6153,0 1.04963,0.398137 0.39814,0.434332 0.39814,1.049635 0,0.579109 -0.39814,1.013441 -2.75077,2.642184 -6.40639,2.642184 -3.76421,0 -6.40639,-2.642184 -2.64219,-2.642184 -2.64219,-6.406392 0,-3.764207 2.64219,-6.406391 2.64218,-2.642184 6.40639,-2.642184 3.76421,0 6.40639,2.642184 2.64218,2.642184 2.64218,6.406391 0,0.615303 -0.43433,1.049635 -0.39814,0.398137 -1.01344,0.398137 z m -13.57286,-2.895544 h 11.94412 q -0.50672,-2.063075 -2.17166,-3.36607 -1.66494,-1.339189 -3.8004,-1.339189 -2.17166,0 -3.8366,1.339189 -1.62874,1.302995 -2.13546,3.36607 z"
       style="font-style:normal;font-variant:normal;font-weight:normal;font-stretch:normal;font-size:36.1943px;font-family:Nokio;-inkscape-font-specification:Nokio;fill:#ffffff;fill-opacity:1;stroke-width:0.999998"
       id="path860" />
    <path
       d="m 259.50203,44.972902 q -2.75076,2.642184 -6.40639,2.642184 -3.7642,0 -6.40639,-2.642184 -2.64218,-2.642184 -2.64218,-6.406392 0,-3.764207 2.64218,-6.406391 2.64219,-2.642184 6.40639,-2.642184 3.65563,0 6.40639,2.642184 0.39814,0.434331 0.39814,1.049635 0,0.579108 -0.39814,1.01344 -0.43433,0.398137 -1.04963,0.398137 -0.57911,0 -1.01344,-0.398137 -1.80972,-1.809715 -4.34332,-1.809715 -2.5336,0 -4.34331,1.809715 -1.80972,1.809715 -1.80972,4.343316 0,2.533601 1.80972,4.343316 1.80971,1.809715 4.34331,1.809715 2.5336,0 4.34332,-1.809715 0.43433,-0.398137 1.01344,-0.398137 0.6153,0 1.04963,0.398137 0.39814,0.434332 0.39814,1.049635 0,0.579109 -0.39814,1.013441 z"
       style="font-style:normal;font-variant:normal;font-weight:normal;font-stretch:normal;font-size:36.1943px;font-family:Nokio;-inkscape-font-specification:Nokio;fill:#ffffff;fill-opacity:1;stroke-width:0.999998"
       id="path862" />
    <path
       d="m 279.55367,47.180754 -6.58736,-6.551169 -6.58736,6.551169 q -0.36195,0.434332 -1.01344,0.434332 -0.61531,0 -1.04964,-0.398138 -0.39814,-0.434331 -0.39814,-1.049634 V 21.917131 q 0,-0.615303 0.39814,-1.01344 0.43433,-0.434332 1.04964,-0.434332 0.6153,0 1.01344,0.434332 0.43433,0.398137 0.43433,1.01344 v 20.739335 l 12.74039,-12.7042 q 0.39814,-0.434331 1.01344,-0.434331 0.61531,0 1.01344,0.434331 0.43434,0.398138 0.43434,1.013441 0,0.615303 -0.43434,1.01344 l -6.55117,6.587363 6.55117,6.587363 q 0.43434,0.398137 0.43434,1.013441 0,0.615303 -0.43434,1.01344 -0.39813,0.434332 -1.01344,0.434332 -0.6153,0 -1.01344,-0.434332 z"
       style="font-style:normal;font-variant:normal;font-weight:normal;font-stretch:normal;font-size:36.1943px;font-family:Nokio;-inkscape-font-specification:Nokio;fill:#ffffff;fill-opacity:1;stroke-width:0.999998"
       id="path864" />
    <path
       d="m 301.45112,22.7496 q 0.47053,0.470526 0.47053,1.158218 0,0.687692 -0.47053,1.158218 -0.47052,0.470526 -1.15821,0.470526 -0.68769,0 -1.15822,-0.470526 -0.47053,-0.470526 -0.47053,-1.158218 0,-0.687692 0.47053,-1.158218 0.47053,-0.470526 1.15822,-0.470526 0.68769,0 1.15821,0.470526 z m -2.60598,23.417714 V 30.965707 q 0,-0.615303 0.39813,-1.013441 0.43433,-0.434331 1.04964,-0.434331 0.6153,0 1.01344,0.434331 0.43433,0.398138 0.43433,1.013441 v 15.201607 q 0,0.615303 -0.43433,1.049634 -0.39814,0.398138 -1.01344,0.398138 -0.61531,0 -1.04964,-0.398138 -0.39813,-0.434331 -0.39813,-1.049634 z"
       style="font-style:normal;font-variant:normal;font-weight:normal;font-stretch:normal;font-size:36.1943px;font-family:Nokio;-inkscape-font-specification:Nokio;fill:#ffffff;fill-opacity:1;stroke-width:0.999998"
       id="path866" />
    <path
       d="M 321.1046,46.167314 V 38.56651 q 0,-2.533601 -1.80971,-4.343316 -1.80972,-1.809715 -4.34332,-1.809715 -2.5336,0 -4.34332,1.809715 -1.80971,1.809715 -1.80971,4.343316 v 7.600804 q 0,0.615303 -0.43433,1.049634 -0.39814,0.398138 -1.01344,0.398138 -0.61531,0 -1.04964,-0.398138 -0.39814,-0.434331 -0.39814,-1.049634 V 30.965707 q 0,-0.615303 0.39814,-1.013441 0.43433,-0.434331 1.04964,-0.434331 0.6153,0 1.01344,0.434331 0.43433,0.398138 0.43433,1.013441 v 0.977246 q 2.5336,-2.425018 6.15303,-2.425018 3.76421,0 6.40639,2.642184 2.64219,2.642184 2.64219,6.406391 v 7.600804 q 0,0.615303 -0.43434,1.049634 -0.39813,0.398138 -1.01344,0.398138 -0.6153,0 -1.04963,-0.398138 -0.39814,-0.434331 -0.39814,-1.049634 z"
       style="font-style:normal;font-variant:normal;font-weight:normal;font-stretch:normal;font-size:36.1943px;font-family:Nokio;-inkscape-font-specification:Nokio;fill:#ffffff;fill-opacity:1;stroke-width:0.999998"
       id="path868" />
  </g>
  <path
     d="M 21.556861,18.890534 20.826356,18.187858 H 14.777079 L 0.2261133,32.728394 4.4704534e-6,32.982324 V 39.0316 L 13.420426,52.462458 l 0.873127,0.862692 0.504397,0.486998 h 6.049278 l 13.677837,-13.667389 1.099236,-1.127067 v -6.052767 z m -11.434143,17.107728 7.687696,-7.687694 7.687695,7.687694 -7.687695,7.687695 z M 8.8912941,34.770321 7.447678,33.326711 20.488933,20.281972 33.881525,33.685006 v 2.890712 L 20.485453,23.176164 Z M 18.387861,19.927155 4.9883106,33.32322 16.58247,44.917389 15.138852,46.360999 2.0975972,33.32322 15.497147,19.927155 Z M 1.7393022,35.420821 15.135374,48.820372 26.729533,37.226218 28.17315,38.669828 15.135374,51.711084 14.265725,50.841438 1.7393022,38.311533 Z M 17.232966,52.069379 30.632516,38.669828 19.038357,27.07915 20.481975,25.635531 33.52323,38.676782 20.12368,52.069379 Z"
     id="path2-8"
     style="fill:#4630ab;fill-opacity:1;stroke-width:1" />
  <path
     style="fill:#ffffff;stroke-width:1.52837"
     d="m 8.4399315,44.969842 -6.685469,-6.685626 v -1.408727 -1.408713 l 6.6988338,6.698665 6.6988347,6.698678 5.794956,-5.794762 5.794954,-5.794776 0.691146,0.69114 0.691145,0.691154 -6.499466,6.499296 -6.499466,6.499311 z"
     id="path843" />
  <path
     style="fill:#ffffff;stroke-width:1.52837"
     d="M 8.6393805,39.799588 2.1533649,33.313416 8.8254619,26.641157 15.49756,19.968898 h 1.408884 1.408883 l -6.685476,6.685639 -6.6854765,6.685626 5.7947115,5.794534 5.794711,5.794533 -0.676769,0.678273 c -0.372221,0.373043 -0.689112,0.678272 -0.704198,0.678272 -0.01509,0 -2.946139,-2.918784 -6.5134495,-6.486187 z"
     id="path845" />
  <path
     style="fill:#ffffff;stroke-width:1.52837"
     d="m 27.154266,29.817917 -6.685518,-6.68556 -5.794981,5.794796 -5.7949813,5.794805 -0.6911455,-0.691154 -0.6911441,-0.69114 6.4994649,-6.499296 6.499466,-6.49931 6.686375,6.686537 6.686376,6.686537 -0.01425,1.394677 -0.01425,1.394677 z"
     id="path847" />
  <path
     style="fill:#ffffff;stroke-width:1.52837"
     d="m 23.990976,45.342002 6.685478,-6.68564 -5.794956,-5.794762 -5.794955,-5.794776 0.691182,-0.691184 0.691183,-0.691182 6.499305,6.499297 6.499305,6.499311 -6.672126,6.672288 -6.672124,6.672288 H 18.714384 17.3055 Z"
     id="path849" />
</svg>
