<?xml version="1.0" encoding="UTF-8" standalone="no"?>
<svg
   xmlns:dc="http://purl.org/dc/elements/1.1/"
   xmlns:cc="http://creativecommons.org/ns#"
   xmlns:rdf="http://www.w3.org/1999/02/22-rdf-syntax-ns#"
   xmlns:svg="http://www.w3.org/2000/svg"
   xmlns="http://www.w3.org/2000/svg"
   xmlns:sodipodi="http://sodipodi.sourceforge.net/DTD/sodipodi-0.dtd"
   xmlns:inkscape="http://www.inkscape.org/namespaces/inkscape"
   width="324"
   height="72"
   viewBox="0 0 324 72"
   fill="none"
   version="1.1"
   id="svg6"
   sodipodi:docname="LogoH_P.svg"
   inkscape:version="1.0.2 (e86c870879, 2021-01-15, custom)">
  <metadata
     id="metadata12">
    <rdf:RDF>
      <cc:Work
         rdf:about="">
        <dc:format>image/svg+xml</dc:format>
        <dc:type
           rdf:resource="http://purl.org/dc/dcmitype/StillImage" />
        <dc:title />
      </cc:Work>
    </rdf:RDF>
  </metadata>
  <defs
     id="defs10" />
  <sodipodi:namedview
     pagecolor="#ffffff"
     bordercolor="#666666"
     borderopacity="1"
     objecttolerance="10"
     gridtolerance="10"
     guidetolerance="10"
     inkscape:pageopacity="0"
     inkscape:pageshadow="2"
     inkscape:window-width="1600"
     inkscape:window-height="838"
     id="namedview8"
     showgrid="false"
     inkscape:zoom="1.6759259"
     inkscape:cx="73.526198"
     inkscape:cy="36.08961"
     inkscape:window-x="-6"
     inkscape:window-y="-6"
     inkscape:window-maximized="1"
     inkscape:current-layer="svg6"
     inkscape:document-rotation="0"
     showguides="false" />
  <path
     d="M 45.268487,46.167317 V 30.96571 q 0,-0.615303 0.398139,-1.01344 0.434331,-0.434332 1.049633,-0.434332 0.615305,0 1.013441,0.434332 0.434331,0.398137 0.434331,1.01344 v 0.977246 q 2.533603,-2.425018 6.153032,-2.425018 0.615303,0 1.01344,0.434332 0.434332,0.398137 0.434332,1.01344 0,0.615303 -0.434332,1.049635 -0.398137,0.398137 -1.01344,0.398137 -2.533601,0 -4.343316,1.809715 -1.809716,1.809715 -1.809716,4.343316 v 7.600804 q 0,0.615303 -0.434331,1.049635 -0.398137,0.398137 -1.013441,0.398137 -0.615303,0 -1.049634,-0.398137 -0.398138,-0.434332 -0.398138,-1.049635 z"
     style="font-style:normal;font-variant:normal;font-weight:normal;font-stretch:normal;font-size:36.1943px;line-height:1.25;font-family:Nokio;-inkscape-font-specification:Nokio;fill:#4630ab;fill-opacity:1;stroke-width:0.999999"
     id="path837" />
  <path
     d="M 73.861915,40.014285 H 60.289051 q 0.50672,2.063076 2.135464,3.402265 1.664939,1.302995 3.836597,1.302995 2.533601,0 4.343316,-1.809715 0.434331,-0.398138 1.01344,-0.398138 0.615303,0 1.049635,0.398138 0.398137,0.434331 0.398137,1.049634 0,0.579109 -0.398137,1.013441 -2.750767,2.642184 -6.406391,2.642184 -3.764208,0 -6.406392,-2.642184 -2.642184,-2.642184 -2.642184,-6.406392 0,-3.764207 2.642184,-6.406391 2.642184,-2.642184 6.406392,-2.642184 3.764207,0 6.406391,2.642184 2.642184,2.642184 2.642184,6.406391 0,0.615304 -0.434332,1.049635 -0.398137,0.398137 -1.01344,0.398137 z M 60.289051,37.118741 h 11.94412 q -0.50672,-2.063075 -2.171658,-3.36607 -1.664938,-1.339189 -3.800401,-1.339189 -2.171658,0 -3.836596,1.339189 -1.628744,1.302995 -2.135465,3.36607 z"
     style="font-style:normal;font-variant:normal;font-weight:normal;font-stretch:normal;font-size:36.1943px;line-height:1.25;font-family:Nokio;-inkscape-font-specification:Nokio;fill:#4630ab;fill-opacity:1;stroke-width:0.999999"
     id="path839" />
  <path
     d="m 104.62701,46.167317 v -8.686633 q 0,-2.099269 -1.48397,-3.583235 -1.48397,-1.483967 -3.583235,-1.483967 -2.099269,0 -3.583235,1.483967 -1.483967,1.483966 -1.483967,3.583235 v 8.686633 q 0,0.615303 -0.434331,1.049635 -0.398139,0.398137 -1.013441,0.398137 -0.615303,0 -1.049635,-0.398137 -0.398137,-0.434332 -0.398137,-1.049635 v -8.686633 q 0,-2.099269 -1.483966,-3.583235 -1.483968,-1.483967 -3.583236,-1.483967 -2.09927,0 -3.583236,1.483967 -1.483966,1.483966 -1.483966,3.583235 v 8.686633 q 0,0.615303 -0.434332,1.049635 -0.398137,0.398137 -1.01344,0.398137 -0.615304,0 -1.049635,-0.398137 Q 78.56711,46.78262 78.56711,46.167317 V 30.96571 q 0,-0.615303 0.398138,-1.01344 0.434331,-0.434332 1.049635,-0.434332 0.615303,0 1.01344,0.434332 0.434332,0.398137 0.434332,1.01344 v 0.361943 q 2.280241,-1.809715 5.067202,-1.809715 1.990686,0 3.691819,0.904858 1.701132,0.904857 2.823155,2.497406 1.122023,-1.592549 2.823155,-2.497406 1.701133,-0.904858 3.691818,-0.904858 3.257486,0 5.610116,2.35263 2.35263,2.352629 2.35263,5.610116 v 8.686633 q 0,0.615303 -0.43433,1.049635 -0.39814,0.398137 -1.01344,0.398137 -0.61531,0 -1.04964,-0.398137 -0.39813,-0.434332 -0.39813,-1.049635 z"
     style="font-style:normal;font-variant:normal;font-weight:normal;font-stretch:normal;font-size:36.1943px;line-height:1.25;font-family:Nokio;-inkscape-font-specification:Nokio;fill:#4630ab;fill-opacity:1;stroke-width:0.999999"
     id="path841" />
  <path
     d="m 126.95888,44.972905 q -2.64218,2.642184 -6.40639,2.642184 -3.76421,0 -6.40639,-2.642184 -2.64219,-2.642184 -2.64219,-6.406392 0,-3.764207 2.64219,-6.406391 2.64218,-2.642184 6.40639,-2.642184 3.76421,0 6.40639,2.642184 2.64218,2.642184 2.64218,6.406391 0,3.764208 -2.64218,6.406392 z M 116.20917,42.90983 q 1.80972,1.809715 4.34332,1.809715 2.5336,0 4.34332,-1.809715 1.80971,-1.809715 1.80971,-4.343317 0,-2.533601 -1.80971,-4.343316 -1.80972,-1.809715 -4.34332,-1.809715 -2.5336,0 -4.34332,1.809715 -1.80971,1.809715 -1.80971,4.343316 0,2.533602 1.80971,4.343317 z"
     style="font-style:normal;font-variant:normal;font-weight:normal;font-stretch:normal;font-size:36.1943px;line-height:1.25;font-family:Nokio;-inkscape-font-specification:Nokio;fill:#4630ab;fill-opacity:1;stroke-width:0.999999"
     id="path844" />
  <path
     style="color:#000000;font-style:normal;font-variant:normal;font-weight:normal;font-stretch:normal;font-size:36.1943px;line-height:1.25;font-family:Nokio;-inkscape-font-specification:Nokio;font-variant-ligatures:normal;font-variant-position:normal;font-variant-caps:normal;font-variant-numeric:normal;font-variant-alternates:normal;font-variant-east-asian:normal;font-feature-settings:normal;font-variation-settings:normal;text-indent:0;text-align:start;text-decoration:none;text-decoration-line:none;text-decoration-style:solid;text-decoration-color:#000000;letter-spacing:normal;word-spacing:normal;text-transform:none;writing-mode:lr-tb;direction:ltr;text-orientation:mixed;dominant-baseline:auto;baseline-shift:baseline;text-anchor:start;white-space:normal;shape-padding:0;shape-margin:0;inline-size:0;clip-rule:nonzero;display:inline;overflow:visible;visibility:visible;isolation:auto;mix-blend-mode:normal;color-interpolation:sRGB;color-interpolation-filters:linearRGB;solid-color:#000000;solid-opacity:1;vector-effect:none;fill:#4630ab;fill-opacity:1;fill-rule:nonzero;stroke-width:0.999999;stroke-linecap:butt;stroke-linejoin:miter;stroke-miterlimit:4;stroke-dasharray:none;stroke-dashoffset:0;stroke-opacity:1;color-rendering:auto;image-rendering:auto;shape-rendering:auto;text-rendering:auto;enable-background:accumulate;stop-color:#000000;stop-opacity:1;stroke:none;opacity:1"
     d="m 136.47794,32.413482 v 9.772462 c 0,0.699756 0.2413,1.302994 0.72389,1.809715 0.50672,0.482591 1.10996,0.723886 1.80971,0.723886 0.69976,0 1.303,-0.25336 1.80972,-0.760081 0.26543,-0.265425 0.59117,-0.398137 0.97724,-0.398137 0.41021,0 0.76009,0.132712 1.04964,0.398137 0.28955,0.289555 0.43433,0.639433 0.43433,1.049635 0,0.386073 -0.14478,0.723886 -0.43433,1.013441 -1.0617,1.061699 -2.34057,1.592549 -3.8366,1.592549 -1.49603,0 -2.77489,-0.53085 -3.83659,-1.592549 -1.0617,-1.0617 -1.59255,-2.340565 -1.59255,-3.836596 V 23.72685 c 0,-0.410202 0.13271,-0.748016 0.39814,-1.013441 0.28955,-0.289554 0.63943,-0.434331 1.04963,-0.434331 0.4102,0 0.74801,0.144777 1.01344,0.434331 0.28955,0.265425 0.43433,0.603239 0.43433,1.013441 v 5.791088 h 3.98138 c 0.4102,0 0.74801,0.144777 1.01344,0.434332 0.28955,0.265425 0.43433,0.603238 0.43433,1.01344 0,0.410202 -0.14478,0.76008 -0.43433,1.049635 -0.26543,0.265425 -0.60324,0.398137 -1.01344,0.398137 z"
     id="path846" />
  <path
     d="m 163.00825,40.014285 h -13.57286 q 0.50672,2.063076 2.13546,3.402265 1.66494,1.302995 3.8366,1.302995 2.5336,0 4.34331,-1.809715 0.43433,-0.398138 1.01344,-0.398138 0.61531,0 1.04964,0.398138 0.39814,0.434331 0.39814,1.049634 0,0.579109 -0.39814,1.013441 -2.75077,2.642184 -6.40639,2.642184 -3.76421,0 -6.40639,-2.642184 -2.64219,-2.642184 -2.64219,-6.406392 0,-3.764207 2.64219,-6.406391 2.64218,-2.642184 6.40639,-2.642184 3.7642,0 6.40639,2.642184 2.64218,2.642184 2.64218,6.406391 0,0.615304 -0.43433,1.049635 -0.39814,0.398137 -1.01344,0.398137 z m -13.57286,-2.895544 h 11.94412 q -0.50672,-2.063075 -2.17166,-3.36607 -1.66494,-1.339189 -3.8004,-1.339189 -2.17166,0 -3.8366,1.339189 -1.62874,1.302995 -2.13546,3.36607 z"
     style="font-style:normal;font-variant:normal;font-weight:normal;font-stretch:normal;font-size:36.1943px;line-height:1.25;font-family:Nokio;-inkscape-font-specification:Nokio;fill:#4630ab;fill-opacity:1;stroke-width:0.999999"
     id="path848" />
  <path
     d="m 196.56026,44.972905 q -2.75077,2.642184 -6.40639,2.642184 -3.76421,0 -6.40639,-2.642184 -2.64219,-2.642184 -2.64219,-6.406392 0,-3.764207 2.64219,-6.406391 2.64218,-2.642184 6.40639,-2.642184 3.65562,0 6.40639,2.642184 0.39814,0.434332 0.39814,1.049635 0,0.579109 -0.39814,1.01344 -0.43433,0.398138 -1.04963,0.398138 -0.57911,0 -1.01344,-0.398138 -1.80972,-1.809715 -4.34332,-1.809715 -2.5336,0 -4.34332,1.809715 -1.80971,1.809715 -1.80971,4.343316 0,2.533602 1.80971,4.343317 1.80972,1.809715 4.34332,1.809715 2.5336,0 4.34332,-1.809715 0.43433,-0.398138 1.01344,-0.398138 0.6153,0 1.04963,0.398138 0.39814,0.434331 0.39814,1.049634 0,0.579109 -0.39814,1.013441 z"
     style="font-style:normal;font-variant:normal;font-weight:normal;font-stretch:normal;font-size:36.1943px;line-height:1.25;font-family:Nokio;-inkscape-font-specification:Nokio;fill:#4630ab;fill-opacity:1;stroke-width:0.999999"
     id="path850" />
  <path
     d="m 216.9014,46.167317 v -7.600804 q 0,-2.533601 -1.80972,-4.343316 -1.80971,-1.809715 -4.34331,-1.809715 -2.5336,0 -4.34332,1.809715 -1.80971,1.809715 -1.80971,4.343316 v 7.600804 q 0,0.615303 -0.43434,1.049635 -0.39813,0.398137 -1.01344,0.398137 -0.6153,0 -1.04963,-0.398137 -0.39814,-0.434332 -0.39814,-1.049635 V 21.917135 q 0,-0.615303 0.39814,-1.013441 0.43433,-0.434331 1.04963,-0.434331 0.61531,0 1.01344,0.434331 0.43434,0.398138 0.43434,1.013441 v 10.025821 q 2.5336,-2.425018 6.15303,-2.425018 3.7642,0 6.40639,2.642184 2.64218,2.642184 2.64218,6.406391 v 7.600804 q 0,0.615303 -0.43433,1.049635 -0.39814,0.398137 -1.01344,0.398137 -0.6153,0 -1.04963,-0.398137 -0.39814,-0.434332 -0.39814,-1.049635 z"
     style="font-style:normal;font-variant:normal;font-weight:normal;font-stretch:normal;font-size:36.1943px;line-height:1.25;font-family:Nokio;-inkscape-font-specification:Nokio;fill:#4630ab;fill-opacity:1;stroke-width:0.999999"
     id="path852" />
  <path
     d="m 239.70375,40.014285 h -13.57286 q 0.50672,2.063076 2.13546,3.402265 1.66494,1.302995 3.8366,1.302995 2.5336,0 4.34332,-1.809715 0.43433,-0.398138 1.01344,-0.398138 0.6153,0 1.04963,0.398138 0.39814,0.434331 0.39814,1.049634 0,0.579109 -0.39814,1.013441 -2.75077,2.642184 -6.40639,2.642184 -3.76421,0 -6.40639,-2.642184 -2.64219,-2.642184 -2.64219,-6.406392 0,-3.764207 2.64219,-6.406391 2.64218,-2.642184 6.40639,-2.642184 3.76421,0 6.40639,2.642184 2.64219,2.642184 2.64219,6.406391 0,0.615304 -0.43434,1.049635 -0.39813,0.398137 -1.01344,0.398137 z m -13.57286,-2.895544 h 11.94412 q -0.50672,-2.063075 -2.17166,-3.36607 -1.66494,-1.339189 -3.8004,-1.339189 -2.17166,0 -3.8366,1.339189 -1.62874,1.302995 -2.13546,3.36607 z"
     style="font-style:normal;font-variant:normal;font-weight:normal;font-stretch:normal;font-size:36.1943px;line-height:1.25;font-family:Nokio;-inkscape-font-specification:Nokio;fill:#4630ab;fill-opacity:1;stroke-width:0.999999"
     id="path854" />
  <path
     d="m 259.50196,44.972905 q -2.75077,2.642184 -6.40639,2.642184 -3.76421,0 -6.4064,-2.642184 -2.64218,-2.642184 -2.64218,-6.406392 0,-3.764207 2.64218,-6.406391 2.64219,-2.642184 6.4064,-2.642184 3.65562,0 6.40639,2.642184 0.39813,0.434332 0.39813,1.049635 0,0.579109 -0.39813,1.01344 -0.43434,0.398138 -1.04964,0.398138 -0.57911,0 -1.01344,-0.398138 -1.80971,-1.809715 -4.34331,-1.809715 -2.53361,0 -4.34332,1.809715 -1.80972,1.809715 -1.80972,4.343316 0,2.533602 1.80972,4.343317 1.80971,1.809715 4.34332,1.809715 2.5336,0 4.34331,-1.809715 0.43433,-0.398138 1.01344,-0.398138 0.6153,0 1.04964,0.398138 0.39813,0.434331 0.39813,1.049634 0,0.579109 -0.39813,1.013441 z"
     style="font-style:normal;font-variant:normal;font-weight:normal;font-stretch:normal;font-size:36.1943px;line-height:1.25;font-family:Nokio;-inkscape-font-specification:Nokio;fill:#4630ab;fill-opacity:1;stroke-width:0.999999"
     id="path856" />
  <path
     d="m 279.55359,47.180757 -6.58736,-6.551168 -6.58736,6.551168 q -0.36194,0.434332 -1.01344,0.434332 -0.6153,0 -1.04964,-0.398137 -0.39813,-0.434332 -0.39813,-1.049635 V 21.917135 q 0,-0.615303 0.39813,-1.013441 0.43434,-0.434331 1.04964,-0.434331 0.6153,0 1.01344,0.434331 0.43433,0.398138 0.43433,1.013441 V 42.65647 l 12.74039,-12.7042 q 0.39814,-0.434332 1.01344,-0.434332 0.61531,0 1.01345,0.434332 0.43433,0.398137 0.43433,1.01344 0,0.615303 -0.43433,1.013441 l -6.55117,6.587362 6.55117,6.587363 q 0.43433,0.398138 0.43433,1.013441 0,0.615303 -0.43433,1.01344 -0.39814,0.434332 -1.01345,0.434332 -0.6153,0 -1.01344,-0.434332 z"
     style="font-style:normal;font-variant:normal;font-weight:normal;font-stretch:normal;font-size:36.1943px;line-height:1.25;font-family:Nokio;-inkscape-font-specification:Nokio;fill:#4630ab;fill-opacity:1;stroke-width:0.999999"
     id="path858" />
  <path
     d="m 301.45105,22.749604 q 0.47052,0.470526 0.47052,1.158217 0,0.687692 -0.47052,1.158218 -0.47053,0.470526 -1.15822,0.470526 -0.68769,0 -1.15822,-0.470526 -0.47052,-0.470526 -0.47052,-1.158218 0,-0.687691 0.47052,-1.158217 0.47053,-0.470526 1.15822,-0.470526 0.68769,0 1.15822,0.470526 z m -2.60599,23.417713 V 30.96571 q 0,-0.615303 0.39813,-1.01344 0.43434,-0.434332 1.04964,-0.434332 0.6153,0 1.01344,0.434332 0.43433,0.398137 0.43433,1.01344 v 15.201607 q 0,0.615303 -0.43433,1.049635 -0.39814,0.398137 -1.01344,0.398137 -0.6153,0 -1.04964,-0.398137 -0.39813,-0.434332 -0.39813,-1.049635 z"
     style="font-style:normal;font-variant:normal;font-weight:normal;font-stretch:normal;font-size:36.1943px;line-height:1.25;font-family:Nokio;-inkscape-font-specification:Nokio;fill:#4630ab;fill-opacity:1;stroke-width:0.999999"
     id="path860" />
  <path
     d="m 321.10452,46.167317 v -7.600804 q 0,-2.533601 -1.80971,-4.343316 -1.80972,-1.809715 -4.34332,-1.809715 -2.5336,0 -4.34331,1.809715 -1.80972,1.809715 -1.80972,4.343316 v 7.600804 q 0,0.615303 -0.43433,1.049635 -0.39814,0.398137 -1.01344,0.398137 -0.6153,0 -1.04964,-0.398137 -0.39813,-0.434332 -0.39813,-1.049635 V 30.96571 q 0,-0.615303 0.39813,-1.01344 0.43434,-0.434332 1.04964,-0.434332 0.6153,0 1.01344,0.434332 0.43433,0.398137 0.43433,1.01344 v 0.977246 q 2.5336,-2.425018 6.15303,-2.425018 3.76421,0 6.40639,2.642184 2.64219,2.642184 2.64219,6.406391 v 7.600804 q 0,0.615303 -0.43433,1.049635 -0.39814,0.398137 -1.01345,0.398137 -0.6153,0 -1.04963,-0.398137 -0.39814,-0.434332 -0.39814,-1.049635 z"
     style="font-style:normal;font-variant:normal;font-weight:normal;font-stretch:normal;font-size:36.1943px;line-height:1.25;font-family:Nokio;-inkscape-font-specification:Nokio;fill:#4630ab;fill-opacity:1;stroke-width:0.999999"
     id="path862" />
  <path
     d="m 21.556781,18.89053 -0.7305,-0.70268 h -6.049279 l -14.5509705,14.54054 -0.2261,0.25393 v 6.04928 l 13.4204195,13.43086 0.87313,0.86269 0.50439,0.487 h 6.04928 l 13.67784,-13.66739 1.09923,-1.12707 v -6.05277 z m -11.434139,17.10773 7.687699,-7.68769 7.68769,7.68769 -7.68769,7.68769 z M 8.8912215,34.77032 7.4476015,33.32671 20.488861,20.28197 33.881451,33.685 v 2.89072 L 20.485381,23.17616 Z M 18.387781,19.92715 4.9882315,33.32322 16.582391,44.91739 15.138772,46.361 2.0975215,33.32322 15.497072,19.92715 Z M 1.7392215,35.42082 15.135302,48.82037 26.729461,37.22622 28.173071,38.66983 15.135302,51.71108 14.265652,50.84144 1.7392215,38.31153 Z m 15.4936695,16.64856 13.39955,-13.39955 -11.59416,-11.59068 1.44362,-1.44362 13.04125,13.04125 -13.39955,13.3926 z"
     id="path2-8"
     style="fill:#4630ab;fill-opacity:1;stroke-width:0.999999" />
  <path
     style="fill:#ffffff;stroke-width:1.52836"
     d="m 8.4398615,44.96984 -6.68547,-6.68563 v -1.40872 -1.40871 l 6.69883,6.69866 6.6988295,6.69868 5.79496,-5.79477 5.79495,-5.79477 0.69115,0.69114 0.69115,0.69115 -6.49947,6.4993 -6.499469,6.49931 z"
     id="path843" />
  <path
     style="fill:#ffffff;stroke-width:1.52836"
     d="m 8.6393015,39.79959 -6.48601,-6.48617 6.67209,-6.67227 6.6720995,-6.67225 h 1.40889 1.40888 l -6.685479,6.68563 -6.6854705,6.68563 5.7947105,5.79453 5.79471,5.79454 -0.67677,0.67827 c -0.37222,0.37304 -0.68911,0.67827 -0.7042,0.67827 -0.0151,0 -2.94614,-2.91878 -6.5134505,-6.48618 z"
     id="path845" />
  <path
     style="fill:#ffffff;stroke-width:1.52836"
     d="m 27.154191,29.81791 -6.68552,-6.68556 -5.794979,5.7948 -5.7949805,5.79481 -0.69115,-0.69116 -0.69114,-0.69114 6.4994595,-6.49929 6.49947,-6.49931 6.68638,6.68653 6.686371,6.68654 -0.0143,1.39468 -0.0143,1.39468 z"
     id="path847" />
  <path
     style="fill:#ffffff;stroke-width:1.52836"
     d="m 23.990901,45.342 6.68548,-6.68564 -5.79496,-5.79476 -5.79495,-5.79478 0.69118,-0.69118 0.69118,-0.69118 6.49931,6.49929 6.4993,6.49931 -6.67212,6.67229 -6.67213,6.67229 h -1.40888 -1.408889 z"
     id="path849" />
</svg>
